Coordinates
nRows=5
nColumns=38

# SIMM Motion File Header:
name Coordinates
datacolumns 38
datarows 5
otherdata 1
range 0.35254000000000002000 0.35654000000000002000

Units are S.I. units (second, meters, Newtons, ...)
Angles are in degrees.

endheader
time	pelvis_tilt	pelvis_list	pelvis_rotation	pelvis_tx	pelvis_ty	pelvis_tz	hip_flexion_r	hip_adduction_r	hip_rotation_r	knee_angle_r	ankle_angle_r	subtalar_angle_r	mtp_angle_r	hip_flexion_l	hip_adduction_l	hip_rotation_l	knee_angle_l	ankle_angle_l	subtalar_angle_l	mtp_angle_l	lumbar_extension	lumbar_bending	lumbar_rotation	arm_flex_r	arm_add_r	arm_rot_r	elbow_flex_r	pro_sup_r	wrist_flex_r	wrist_dev_r	arm_flex_l	arm_add_l	arm_rot_l	elbow_flex_l	pro_sup_l	wrist_flex_l	wrist_dev_l
      0.35254000000000002000	     -9.10220961795346640000	     -0.21534942015119499000	     -6.59049057216457350000	      1.14553385146075230000	      0.96086541469873687000	     -0.30492329822499992000	      1.13640649248016290000	      6.34574223885570190000	      9.13461476263694830000	    -33.70715483087184300000	      9.45432070736832310000	     -0.00000000000002132814	      0.00000000000004456792	     58.45883295527494300000	     -2.45680260182503930000	     -3.40890305578821540000	   -123.93447964074394000000	     -4.43749144613518260000	      0.00000000000000320659	     -0.00000000000000600144	     -1.89476979929157770000	      4.42885399504887810000	     17.95791423228488500000	    -23.37885842821437200000	    -11.77114967853790400000	    -12.98142844456033100000	    100.94803546726078000000	     80.48176415634162600000	     -0.00000000000000177584	     -0.00000000000000490139	    -47.10757818406528900000	    -20.39715798486656000000	     -4.07496546906296510000	     88.34269410522131200000	     90.28185151844897400000	     -0.00000000000000058023	     -0.00000000000000278179
      0.35354000000000002000	     -9.09993630731898410000	     -0.05446898048452626000	     -6.48833282557903780000	      1.14583347088055580000	      0.96155599955215265000	     -0.30500613297798879000	      0.66487387286072264000	      6.08775343673573580000	      9.09583479928746820000	    -33.27400429429181400000	      8.77628051189643440000	     -0.00000000000002186767	      0.00000000000004535555	     58.69449403367264000000	     -2.28510443356825240000	     -3.47458850913064990000	   -123.37516085868106000000	     -4.45430014964243610000	      0.00000000000000319802	     -0.00000000000000602238	     -1.81483170765035550000	      4.23582895280417480000	     17.98261332072487000000	    -23.38290414774588300000	    -11.74709340480502800000	    -12.98346799323066300000	    101.35925382599986000000	     80.53761193986686400000	     -0.00000000000000180349	     -0.00000000000000500194	    -47.40317323220102700000	    -20.46544060646732900000	     -4.23750310992058400000	     88.61694901677293500000	     90.24012530699140200000	     -0.00000000000000058162	     -0.00000000000000284458
      0.35454000000000002000	     -9.09760002656904200000	      0.10828979993780420000	     -6.38428122374966640000	      1.14613820562415290000	      0.96225208058070066000	     -0.30509212495162713000	      0.19454201649955846000	      5.82818542843442700000	      9.05047026056890220000	    -32.83771011566923200000	      8.08562808873136340000	     -0.00000000000002243515	      0.00000000000004616217	     58.92354244259875900000	     -2.11149158929082500000	     -3.54297701200575780000	   -122.80874084254945000000	     -4.47700228299823700000	      0.00000000000000319000	     -0.00000000000000604581	     -1.73505598256551070000	      4.04029283115576470000	     18.00357155390622000000	    -23.38834501391192300000	    -11.72364690420407400000	    -12.98083083419881900000	    101.76772845555210000000	     80.58569628803741100000	     -0.00000000000000183104	     -0.00000000000000510681	    -47.69972160376794800000	    -20.53234118572694200000	     -4.40056348350742880000	     88.89187331072474800000	     90.19704302399377100000	     -0.00000000000000058863	     -0.00000000000000290664
      0.35554000000000002000	     -9.09546269011405430000	      0.27285487976995454000	     -6.27838761886228000000	      1.14644765781108690000	      0.96295289209799106000	     -0.30518125839821864000	     -0.27417907966768340000	      5.56723899421237880000	      8.99855043307336540000	    -32.39865133738738500000	      7.38290676885131970000	     -0.00000000000002298069	      0.00000000000004701443	     59.14629901394386700000	     -1.93603858656578250000	     -3.61393937586606560000	   -122.23534458707397000000	     -4.50562451627138130000	      0.00000000000000318179	     -0.00000000000000608102	     -1.65522247593730330000	      3.84234568875651790000	     18.02085793875177400000	    -23.39520621928804200000	    -11.70080683633283800000	    -12.97359468879204600000	    102.17336936928511000000	     80.62629712589614400000	     -0.00000000000000185897	     -0.00000000000000519701	    -47.99724129909032700000	    -20.59776423355118900000	     -4.56422574508682290000	     89.16735953966136200000	     90.15261622217833800000	     -0.00000000000000060365	     -0.00000000000000296974
      0.35654000000000002000	     -9.09378754233854100000	      0.43914106774275136000	     -6.17070753912354420000	      1.14676141822947720000	      0.96365766972319278000	     -0.30527351558009441000	     -0.74087233237334760000	      5.30512733217852260000	      8.94012673972749990000	    -31.95722955455404700000	      6.66868387343822370000	     -0.00000000000002351730	      0.00000000000004787224	     59.36308801845932900000	     -1.75882957684488520000	     -3.68733611983892740000	   -121.65509777734857000000	     -4.54017945331763430000	      0.00000000000000318093	     -0.00000000000000611274	     -1.57511057021412260000	      3.64210214430091740000	     18.03454969873030200000	    -23.40351500396972300000	    -11.67857124846026200000	    -12.96184699488501500000	    102.57608661159124000000	     80.65971465976220100000	     -0.00000000000000188747	     -0.00000000000000527958	    -48.29574308824886200000	    -20.66161537447859700000	     -4.72856687669078650000	     89.44330362433466100000	     90.10686384970053100000	     -0.00000000000000061316	     -0.00000000000000303149
